# xmcd CD database file
#
# Track frame offsets:
#	150
#	12416
#	27457
#	46738
#	60837
#	76515
#	89920
#
# Disc length: 1447 seconds
#
# Revision: 0
# Processed by: cddbd v1.5.2PL0 Copyright (c) Steve Scherf et al.
# Submitted via: CDex 1.70beta2
#
DISCID=4805a507
DTITLE=compilation - serenade to Laura
DYEAR=1900
DGENRE=Jazz
TTITLE0=Errol Garner trio - Laura
TTITLE1=Harry James and his orchestra - Laura
TTITLE2=Don Byas Quartet - Laura
TTITLE3=Sidney Bechet Quartet - Laura
TTITLE4=Osacr Peterson - Laura
TTITLE5=Charlie Parker with strings - Laura
TTITLE6=Gerry Mulligan Quartet - Laura
EXTD=
EXTT0=
EXTT1=
EXTT2=
EXTT3=
EXTT4=
EXTT5=
EXTT6=
PLAYORDER=
